<svg width="45" height="40" viewBox="0 0 45 40" fill="none" xmlns="http://www.w3.org/2000/svg">
<path d="M42.9418 9.69398C42.4511 7.84633 41.0053 6.39117 39.1696 5.89734C35.8423 5 22.5 5 22.5 5C22.5 5 9.15781 5 5.83039 5.89734C3.99469 6.39125 2.54891 7.84633 2.0582 9.69398C1.16664 13.043 1.16664 20.0303 1.16664 20.0303C1.16664 20.0303 1.16664 27.0177 2.0582 30.3666C2.54891 32.2143 3.99469 33.6088 5.83039 34.1027C9.15781 35 22.5 35 22.5 35C22.5 35 35.8422 35 39.1696 34.1027C41.0053 33.6088 42.4511 32.2143 42.9418 30.3666C43.8334 27.0177 43.8334 20.0303 43.8334 20.0303C43.8334 20.0303 43.8334 13.043 42.9418 9.69398V9.69398ZM18.1363 26.3743V13.6863L29.2878 20.0305L18.1363 26.3743V26.3743Z" fill="#3D66F2"/>
</svg>
