<svg width="45" height="40" viewBox="0 0 45 40" fill="none" xmlns="http://www.w3.org/2000/svg">
<path d="M42.9418 9.69398C42.4511 7.84633 41.0053 6.39117 39.1696 5.89734C35.8423 5 22.5 5 22.5 5C22.5 5 9.1578 5 5.83038 5.89734C3.99467 6.39125 2.54889 7.84633 2.05819 9.69398C1.16663 13.043 1.16663 20.0303 1.16663 20.0303C1.16663 20.0303 1.16663 27.0177 2.05819 30.3666C2.54889 32.2143 3.99467 33.6088 5.83038 34.1027C9.1578 35 22.5 35 22.5 35C22.5 35 35.8422 35 39.1696 34.1027C41.0053 33.6088 42.4511 32.2143 42.9418 30.3666C43.8333 27.0177 43.8333 20.0303 43.8333 20.0303C43.8333 20.0303 43.8333 13.043 42.9418 9.69398ZM18.1363 26.3743V13.6863L29.2878 20.0305L18.1363 26.3743Z" fill="#EF6305"/>
</svg>
