<?xml version="1.0" encoding="UTF-8"?>
<!-- Generator: Adobe Illustrator 23.0.1, SVG Export Plug-In . SVG Version: 6.00 Build 0)  -->
<svg xmlns="http://www.w3.org/2000/svg" xmlns:xlink="http://www.w3.org/1999/xlink" version="1.1" id="Layer_1" x="0px" y="0px" viewBox="0 0 283.46 283.46" style="enable-background:new 0 0 283.46 283.46;" xml:space="preserve">
<style type="text/css">
	.st0{fill:#1D1D1B;}
</style>
<path class="st0" d="M141.7,11.46c34.83,0,67.57,13.56,92.2,38.19c24.63,24.63,38.19,57.37,38.19,92.2s-13.56,67.57-38.19,92.2  c-24.63,24.63-57.37,38.19-92.2,38.19s-67.57-13.56-92.2-38.19c-24.63-24.63-38.19-57.37-38.19-92.2s13.56-67.57,38.19-92.2  C74.13,25.03,106.87,11.46,141.7,11.46 M141.7,0.12C63.42,0.12-0.03,63.58-0.03,141.86S63.42,283.59,141.7,283.59  s141.73-63.46,141.73-141.73S219.98,0.12,141.7,0.12L141.7,0.12z"></path>
<path class="st0" d="M107.5,75.9v44.53h1.56c4.69-6.72,12.97-12.03,25.78-12.03c18.75,0,36.4,14.69,36.4,40.93  c0,26.24-17.65,40.93-37.18,40.93c-12.03,0-20.31-5.47-25-12.03h-1.56l-3.12,10.15h-9.37V75.9H107.5z M132.66,179.01  c15.31,0,25.78-10.94,25.78-29.68s-10.47-29.68-25.78-29.68c-15.31,0-25.78,10.94-25.78,29.68S117.35,179.01,132.66,179.01z"></path>
<path class="st0" d="M205.6,110.27v17.18h-18.75v-17.18H205.6z M205.6,171.2v17.18h-18.75V171.2H205.6z"></path>
</svg>
