<svg id="Layer_1" data-name="Layer 1" xmlns="http://www.w3.org/2000/svg" viewBox="0 0 315.88 266.43"><defs><style>.cls-1{fill:#fff;}</style></defs><polygon class="cls-1" points="157.11 92.61 134.45 92.61 113.36 142.5 91.08 92.61 44.24 92.61 82.72 173.47 141.73 173.47 167.6 114.61 157.11 92.61"/><path class="cls-1" d="M133,0h56l127,266.43H260Z"/><polygon class="cls-1" points="112.94 0 90.21 0 69.12 49.88 46.84 0 0 0 38.47 80.86 97.49 80.86 123.39 21.92 112.94 0"/><polygon class="cls-1" points="201.44 185.57 178.8 185.57 157.72 235.46 135.43 185.57 88.59 185.57 127.06 266.43 186.08 266.43 211.94 207.59 201.44 185.57"/></svg>