<?xml version="1.0" encoding="UTF-8"?>
<svg xmlns="http://www.w3.org/2000/svg" id="Layer_1" data-name="Layer 1" viewBox="0 0 580.83 285.43">
  <defs>
    <style>.cls-1{fill:#3D66F2;}</style>
  </defs>
  <path class="cls-1" d="M412.31,2.22h55.95l88.68,186.4h-55.7Z"></path>
  <path class="cls-1" d="M43,96,4.52,15.15H51.36L73.64,65,94.72,15.15h42.83L102,96Z"></path>
  <path class="cls-1" d="M194.41,96H153.22V15.15h41.19Z"></path>
  <path class="cls-1" d="M255.74,15.15V67.21h56.08V96H214.44V15.15Z"></path>
  <path class="cls-1" d="M366.09,15.15V67.21h56.08V96H324.79V15.15Z"></path>
  <path class="cls-1" d="M87.23,188.62,48.76,107.76H95.6l22.28,49.88L139,107.76h42.82l-35.54,80.86Z"></path>
  <path class="cls-1" d="M237.2,188.62H196V107.76H237.2Z"></path>
  <path class="cls-1" d="M298.53,107.76v52.06h56.08v28.8H257.23V107.76Z"></path>
  <path class="cls-1" d="M408.87,107.76v52.06H465v28.8H367.57V107.76Z"></path>
  <path class="cls-1" d="M131.58,281.58,93.11,200.72H140l22.28,49.88,21.09-49.88h42.82L190.6,281.58Z"></path>
  <path class="cls-1" d="M330.53,200.72v22.54H273.69v6.37h56.19v22.12H273.69v7H331v22.83H233V200.72Z"></path>
  <path class="cls-1" d="M391.66,283.21c-49,0-53.48-17.83-53.48-28.26v-.87h48.37c0,3.48,1.52,8.7,12.82,8.7,9.57,0,12.39-2.72,12.39-5.66v-.32c0-2.72-1.08-5.22-15-5.76l-17.06-.55c-33.26-1.19-40.21-12.93-40.21-25.64v-1c0-15.22,12.17-24.57,51.3-24.57h13.8c43.36,0,53.47,11.53,53.47,25.44v.54H410.68c-.33-2.61-1.63-6.52-12.39-6.52-9.89,0-11.74,1.52-11.74,4.24v.21c0,2.94,3.15,4.57,15.65,4.9l16.3.43c31.52.87,42.6,8.48,42.6,24.89V255c0,14.35-9.23,28.26-55.21,28.26Z"></path>
  <path class="cls-1" d="M500,228.54H465.09V200.72H563l13.27,27.82h-35v53H500Z"></path>
  <path class="cls-1" d="M412.31,2.22h55.95l88.93,186.4H501.32Z"></path>
</svg>
